<svg viewBox="0 0 40 40" xmlns="http://www.w3.org/2000/svg" fill-rule="evenodd" clip-rule="evenodd" stroke-linejoin="round" stroke-miterlimit="2"><path d="M19.01 19.835v4.332h-1.358V13.472h3.604a3.208 3.208 0 012.33.93 3.11 3.11 0 01.152 4.366l-.153.154c-.633.605-1.41.913-2.33.913H19.01zm0-5.05v3.736h2.28c.507.018.995-.188 1.341-.555a1.895 1.895 0 00-.042-2.652 1.844 1.844 0 00-1.3-.53H19.01zM27.693 16.61c1.004 0 1.798.274 2.38.81.583.538.87 1.288.87 2.236v4.511h-1.3v-1.015h-.06c-.565.836-1.307 1.254-2.245 1.254-.793 0-1.468-.239-2-.717a2.273 2.273 0 01-.803-1.79c0-.76.288-1.357.854-1.809.565-.452 1.325-.674 2.27-.674.81 0 1.469.154 1.992.444v-.316c0-.469-.202-.913-.556-1.219a1.964 1.964 0 00-1.31-.503c-.759 0-1.359.323-1.797.972l-1.198-.759c.641-.947 1.611-1.424 2.903-1.424zm-1.756 5.314c0 .358.169.69.448.896.304.238.675.367 1.055.358.574 0 1.122-.231 1.528-.64.447-.426.675-.93.675-1.51-.422-.34-1.013-.511-1.773-.503-.548 0-1.013.136-1.384.401-.363.264-.549.597-.549.998z" fill="#3c4043" fill-rule="nonzero"/><path d="M38.404 16.85l-4.54 10.532h-1.402l1.689-3.684-2.98-6.849h1.477l2.152 5.254h.025l2.102-5.254h1.477z" fill="#3c4043"/><path d="M13.51 18.896c0-.418-.033-.836-.1-1.245H7.676v2.362h3.284a2.842 2.842 0 01-1.216 1.869v1.534h1.959c1.147-1.065 1.806-2.643 1.806-4.52z" fill="#4285f4"/><path d="M7.676 24.9c1.638 0 3.02-.546 4.027-1.484l-1.959-1.534c-.548.375-1.25.588-2.068.588-1.588 0-2.93-1.084-3.41-2.533H2.248v1.586A6.064 6.064 0 007.676 24.9z" fill="#34a853"/><path d="M4.265 19.937a3.742 3.742 0 010-2.354v-1.578H2.25a6.138 6.138 0 000 5.51l2.016-1.578z" fill="#fbbc04"/><path d="M7.676 15.05a3.25 3.25 0 012.33.92l1.739-1.756a5.838 5.838 0 00-4.07-1.596 6.072 6.072 0 00-5.426 3.387l2.016 1.586c.481-1.459 1.823-2.541 3.41-2.541z" fill="#ea4335"/></svg>