<svg width="40" height="40" fill="none" xmlns="http://www.w3.org/2000/svg"><path d="M15.064 12.77l-4.848 11.564H7.043l-2.376-9.23c-.151-.563-.275-.769-.714-1.016-.714-.384-1.91-.755-2.953-.975l.069-.33h5.095c.646 0 1.236.426 1.374 1.181l1.263 6.69 3.118-7.884h3.145zM19.337 12.77l-2.472 11.564h-2.994l2.472-11.564h2.994zM27.453 20.557c.014-3.049-4.216-3.228-4.189-4.587.014-.412.398-.852 1.264-.976.425-.054 1.607-.096 2.953.523l.521-2.459a8.044 8.044 0 00-2.801-.508c-2.953 0-5.041 1.566-5.055 3.818-.014 1.662 1.484 2.596 2.623 3.145 1.168.563 1.553.934 1.553 1.442-.014.77-.934 1.127-1.786 1.127-1.51.027-2.376-.413-3.077-.728l-.549 2.54c.7.316 1.992.605 3.324.619 3.145.013 5.205-1.539 5.219-3.956zM35.612 12.77h-2.555c-.576 0-1.057.33-1.277.851l-4.49 10.713h3.144l.618-1.73h3.832l.357 1.73h2.761l-2.39-11.564zm-3.694 7.471l1.579-4.34.907 4.34h-2.486zM23.166 27.52h-1.223v1.14h1.36v.33h-1.772V25.86h1.703v.33h-1.29v1.002h1.222v.33zM24.35 25.694h-.413v3.31h.412v-3.31zM26.972 27.754c0-.412-.192-1.057-.934-1.057-.66 0-1.058.535-1.058 1.208 0 .687.412 1.14 1.113 1.14.357 0 .604-.082.755-.15l-.068-.29c-.151.07-.33.11-.618.11-.412 0-.77-.233-.77-.782h1.566c.014-.041.014-.096.014-.179zm-1.593-.11c.027-.288.206-.659.632-.659.466 0 .576.412.563.66h-1.195zM29.21 28.908c-.11.055-.344.137-.646.137-.687 0-1.127-.467-1.127-1.153 0-.7.481-1.195 1.21-1.195.246 0 .452.055.562.123l-.096.316a.946.946 0 00-.48-.11c-.523 0-.797.385-.797.852 0 .522.33.838.783.838.233 0 .384-.055.508-.11l.082.302zM30.35 26.202v.536h.59v.316h-.59v1.222c0 .275.082.44.301.44.11 0 .179-.014.234-.028l.013.316a1.147 1.147 0 01-.357.055.567.567 0 01-.44-.179c-.109-.123-.164-.33-.164-.59v-1.236h-.343v-.316h.343v-.426l.412-.11zM31.514 27.438c0-.26 0-.494-.014-.7h.357l.014.453h.014c.096-.302.357-.494.631-.494.042 0 .069 0 .11.014v.384c-.041-.014-.082-.014-.137-.014-.288 0-.495.22-.55.522-.013.055-.013.124-.013.192v1.195h-.412v-1.552zM34.058 26.697c-.618 0-1.113.44-1.113 1.195 0 .714.481 1.153 1.085 1.153.536 0 1.127-.357 1.127-1.195-.014-.686-.454-1.153-1.1-1.153zm-.014 2.046c-.398 0-.687-.37-.687-.865 0-.426.206-.865.687-.865.48 0 .673.48.673.865 0 .494-.288.865-.673.865zM35.776 27.356c0-.234 0-.426-.014-.604h.357l.027.37h.014a.84.84 0 01.742-.425c.316 0 .796.192.796.961v1.346h-.412V27.7c0-.357-.137-.659-.522-.659a.59.59 0 00-.549.426.807.807 0 00-.028.192v1.36h-.411v-1.662z" fill="#1A1F71"/></svg>