<svg viewBox="0 0 40 40" xmlns="http://www.w3.org/2000/svg" fill-rule="evenodd" clip-rule="evenodd" stroke-linejoin="round" stroke-miterlimit="2"><path d="M8.79 14.348c.424-.529.712-1.238.636-1.964-.621.03-1.38.408-1.82.938-.393.453-.742 1.193-.651 1.887.697.06 1.394-.347 1.835-.86zM9.413 15.345c-1.013-.06-1.874.573-2.359.573-.483 0-1.224-.542-2.026-.529-1.042.015-2.01.604-2.54 1.537-1.089 1.87-.287 4.64.772 6.162.513.752 1.133 1.582 1.95 1.553.771-.03 1.073-.499 2.01-.499.937 0 1.21.499 2.027.483.847-.015 1.376-.753 1.89-1.506.589-.86.831-1.687.847-1.733-.016-.015-1.634-.633-1.65-2.486-.014-1.552 1.27-2.289 1.331-2.336-.725-1.069-1.859-1.188-2.252-1.219zM18.232 13.245c2.203 0 3.736 1.512 3.736 3.713 0 2.208-1.565 3.727-3.79 3.727h-2.439v3.86h-1.761v-11.3h4.254zm-2.493 5.968h2.02c1.535 0 2.407-.823 2.407-2.248 0-1.424-.872-2.24-2.398-2.24H15.74v4.488zM22.434 22.204c0-1.44 1.11-2.325 3.076-2.435l2.264-.133v-.634c0-.917-.62-1.465-1.658-1.465-.983 0-1.598.47-1.746 1.206h-1.605c.095-1.487 1.369-2.584 3.413-2.584 2.005 0 3.288 1.057 3.288 2.71v5.677h-1.628v-1.354h-.039c-.48.916-1.526 1.495-2.611 1.495-1.62 0-2.754-1.002-2.754-2.483zm5.34-.744v-.65l-2.035.126c-1.015.07-1.59.518-1.59 1.221 0 .72.598 1.192 1.51 1.192 1.188 0 2.115-.816 2.115-1.889zM31 27.577v-1.37c.125.031.409.031.55.031.787 0 1.211-.329 1.47-1.175 0-.016.15-.5.15-.51l-2.988-8.245h1.84l2.092 6.703h.032l2.092-6.703h1.793l-3.099 8.669c-.708 1.997-1.526 2.639-3.24 2.639-.141 0-.567-.016-.692-.039z" fill-rule="nonzero"/></svg>