<svg width="40" height="40" fill="none" xmlns="http://www.w3.org/2000/svg"><path d="M10.898 31.626c0-.467.311-.83.804-.83.466 0 .803.363.803.83 0 .467-.31.83-.803.83-.519 0-.804-.363-.804-.83zm2.126 0v-1.322h-.57v.31a1.022 1.022 0 00-.83-.388c-.726 0-1.322.57-1.322 1.374 0 .804.57 1.374 1.322 1.374.363 0 .648-.155.83-.389v.311h.57v-1.27zm19.288 0c0-.467.311-.83.804-.83.466 0 .803.363.803.83 0 .467-.31.83-.803.83-.519 0-.804-.363-.804-.83zm2.126 0v-2.36h-.57v1.375a1.022 1.022 0 00-.83-.389c-.726 0-1.322.57-1.322 1.374 0 .804.57 1.374 1.322 1.374.363 0 .648-.156.83-.389v.311h.57v-1.296zM20.1 30.77c.363 0 .597.234.675.649H19.4c.052-.415.286-.649.7-.649zm0-.518c-.777 0-1.296.57-1.296 1.374 0 .83.57 1.374 1.348 1.374.39 0 .752-.104 1.09-.363l-.286-.415a1.181 1.181 0 01-.752.285c-.363 0-.7-.181-.778-.648h1.945v-.207c-.026-.856-.519-1.4-1.27-1.4zm6.896 1.374c0-.467.312-.83.804-.83.467 0 .804.363.804.83 0 .467-.311.83-.804.83-.492 0-.803-.363-.803-.83zm2.126 0v-1.322h-.57v.31a1.022 1.022 0 00-.83-.388c-.726 0-1.322.57-1.322 1.374 0 .804.57 1.374 1.322 1.374.363 0 .649-.155.83-.389v.311h.57v-1.27zm-5.34 0c0 .804.544 1.374 1.4 1.374.389 0 .648-.078.933-.311l-.285-.467c-.208.156-.44.234-.7.234-.467 0-.804-.337-.804-.83 0-.493.337-.83.804-.83.26 0 .466.078.7.234l.285-.467c-.285-.233-.544-.311-.933-.311-.856 0-1.4.57-1.4 1.374zm7.362-1.374c-.337 0-.544.155-.7.389v-.311h-.57v2.618h.57V31.47c0-.44.182-.674.57-.674.104 0 .234.026.364.078l.181-.544a1.29 1.29 0 00-.415-.078zm-15.321.26a1.967 1.967 0 00-1.063-.286c-.674 0-1.089.311-1.089.83 0 .44.311.7.907.777l.26.026c.31.052.466.13.466.285 0 .208-.207.312-.596.312s-.674-.13-.881-.286l-.26.441c.311.233.7.337 1.141.337.752 0 1.193-.363 1.193-.855 0-.467-.337-.7-.908-.778l-.259-.052c-.26-.026-.44-.078-.44-.26 0-.18.18-.31.492-.31.337 0 .648.13.83.233l.207-.415zm7.388-.26c-.337 0-.544.155-.7.389v-.311h-.57v2.618h.57V31.47c0-.44.182-.674.57-.674.104 0 .234.026.364.078l.181-.544a1.426 1.426 0 00-.415-.078zm-4.873.052h-.934V29.5h-.57v.804h-.544v.518h.544v1.193c0 .596.233.96.907.96.26 0 .545-.079.726-.208l-.155-.493a1.07 1.07 0 01-.493.156c-.285 0-.389-.182-.389-.441v-1.193h.933v-.492h-.026zm-8.556 2.644V31.29c0-.622-.389-1.037-1.037-1.037-.337 0-.674.104-.933.467a.97.97 0 00-.856-.467.888.888 0 00-.777.389v-.311h-.57v2.618h.57v-1.452c0-.466.259-.7.648-.7s.57.26.57.7v1.452h.57v-1.452c0-.466.26-.7.649-.7s.57.26.57.7v1.452h.596z" fill="#231F20"/><path d="M23.768 18.085c0 3.153-1.472 5.953-3.775 7.778-2.302-1.825-3.774-4.625-3.774-7.778a9.863 9.863 0 013.774-7.777 9.862 9.862 0 013.775 7.777z" fill="#FF5F00"/><path d="M19.996 25.84c0 .026 0 .026 0 0a9.893 9.893 0 01-6.119 2.126C8.407 27.966 4 23.533 4 18.088c0-5.47 4.433-9.877 9.877-9.877 2.308 0 4.434.778 6.119 2.1a9.857 9.857 0 00-3.785 7.777 9.767 9.767 0 003.785 7.752z" fill="#EB001B"/><path d="M36 18.088c0 5.47-4.434 9.877-9.878 9.877a9.871 9.871 0 01-6.118-2.1 9.856 9.856 0 003.785-7.777 9.856 9.856 0 00-3.785-7.778 9.872 9.872 0 016.118-2.1C31.566 8.186 36 12.619 36 18.089z" fill="#F79E1B"/></svg>