<svg viewBox="0 0 385 385" xmlns="http://www.w3.org/2000/svg" fill-rule="evenodd" clip-rule="evenodd" stroke-linejoin="round" stroke-miterlimit="2"><path d="M192.495 0c106.239 0 192.493 86.254 192.493 192.494s-86.254 192.493-192.493 192.493c-49.878 0-57.19-71.286-91.4-102.451C62.437 247.319 0 248.857 0 192.494 0 86.254 86.255 0 192.495 0z" fill="#fff"/><path d="M158.878 212.905c38.61-19.266 57.877-43.856 59.389-73.333l-82.422-18.178c28.143 23.31 44.499 50.762 23.033 91.511z" fill="#0f2a63"/><path d="M207.027 79.227c69.927-4.13 21.994 72.7 4.822 70.125-36.77-5.51-87.301-13.148-90.998 28.233-5.098 57.08 71.81 91.056 65.347 100.977-2.74 4.207-90.667-36.039-98.042-83.25C79.72 141.308 112.71 84.798 207.027 79.226z" fill="#3172e4"/><path d="M209.704 95.44c64.989-13.367 7.75 66.497-17.532 63.78-30.183-3.24-61.345-2.636-64.2 26.59-5.123 52.418 68.106 83.661 61.977 92.776-2.598 3.865-87.662-32.89-92.988-76.49-5.664-46.367 30.21-89.68 112.743-106.656z" fill="#181ead"/><path d="M279.939 139.128c26.916 10.094 54.107 14.068 33.054 23.198-4.553 1.976-5.845 4.86-4.89 8.65 1.495 5.936 2.522 10.922-4.94 11.121-4.568.123-8.163-.365-12.218-1.127-9.687-1.823-15.536-6.01-25.301-9.811-1.633-.635-9.969-1.108-11.514-.71-28.357 7.272-32.571-16.922-25.326-38.688 4.933-14.816 24.22-2.727 51.135 7.367z" fill="#cdcdcd"/><path d="M247.623 145.378c8.295 5.562 8.013 18.05 7.244 25.782h-22.07c6.054-4.44 13.864-16.573 14.826-25.782z" fill="#fff"/><path d="M258.837 151.668c8.295 5.562 8.013 18.051 7.244 25.783h-22.07c6.054-4.441 13.863-16.574 14.826-25.783z" fill="#fff"/><path d="M270.05 154.612c8.295 5.562 8.014 18.05 7.244 25.783h-22.07c6.054-4.442 13.864-16.574 14.827-25.783z" fill="#fff"/><path d="M282.217 159.464c4.58 5.025 4.531 12.216 3.218 18.608-.617 2.997-16.409-1.403-12.694-5.045 4.138-4.051 7.826-8.973 9.476-13.563z" fill="#fff"/><path d="M291.43 162.972c3.371 3.699 4.235 8.57 3.932 13.435-.3 4.842-15.853 2.83-11.724-1.595 3.433-3.679 6.369-7.882 7.792-11.84z" fill="#fff"/><path d="M298.945 168.47c3.015 3.307 4.025 7.555 3.988 11.895-.01 1.082-12.791 1.026-11.83 0 3.454-3.693 6.412-7.92 7.842-11.895zm-56.023-13.858c-8.506-5.234-8.714-17.724-8.248-25.48l22.053-.864c-5.875 4.675-13.204 17.104-13.805 26.344z" fill="#fff"/><path d="M256.01 149.589c-8.506-5.233-8.713-17.724-8.247-25.48l22.052-.863c-5.875 4.674-13.204 17.103-13.805 26.343z" fill="#fff"/><path d="M267.106 154.612c-8.506-5.234-8.713-17.724-8.247-25.48l22.053-.864c-5.875 4.675-13.204 17.104-13.806 26.344z" fill="#fff"/><path d="M278.883 157.525c-9.038-4.25-10.64-16.638-11.044-24.398l21.818-3.324c-5.316 5.303-11.21 18.473-10.774 27.722z" fill="#fff"/><path d="M289.792 162.975c-9.037-4.25-10.64-16.639-11.044-24.398l21.818-3.324c-5.316 5.302-11.209 18.472-10.774 27.722z" fill="#fff"/><path d="M300.7 167.868c-9.038-4.25-10.64-16.638-11.044-24.397l21.817-3.324c-5.315 5.302-11.209 18.472-10.773 27.721z" fill="#fff"/><path d="M330.947 177.055c-33.526-15.431-78.253-50.58-91.283-42.252-8.464 5.409-5.597 17.194-4.592 22.312 4.389 22.383 30.283-.706 87.853 27.214-73.23.642-89.129-5.489-114.992-17.708-15.125-7.144-33.863-38.843-43.635-56.86 0 0 38.22-36.197 49.697-33.681 76.9 16.854 111.022 53.072 116.952 100.975z" fill="#3172e4"/><path d="M114.601 36.11c51.956 1.863 80.578 7.876 99.394 39.964-8.235 19.243-40.875 34.612-79.99 41.029 16.048-40.276 27.033-46.477-19.404-80.993z" fill="#3172e4"/><path d="M162.589 270.09c-1.444-3.748 2.949-12.596 6.455-13.192 48.405-8.226 97.214-9.327 146.274-5.942-91.391 8.159-129.566 43.345-97.841 114.03-23.12-30.873-42.355-62.358-54.888-94.895z" fill="#181ead"/><path d="M235.995 111.645l-6.207-14.33 21.563 11.49-15.356 2.84z" fill="#fff"/></svg>